<svg xmlns="http://www.w3.org/2000/svg" xmlns:xlink="http://www.w3.org/1999/xlink" viewBox="0 0 50 50"><path d="M4 10C1.789063 10 0 11.789063 0 14L0 36C0 38.210938 1.789063 40 4 40L28 40C29.195313 40 30.265625 39.484375 31 38.65625C31.734375 39.484375 32.804688 40 34 40L46 40C48.210938 40 50 38.210938 50 36L50 14C50 11.789063 48.210938 10 46 10L34 10C32.804688 10 31.734375 10.515625 31 11.34375C30.265625 10.515625 29.195313 10 28 10 Z M 4 12L28 12C29.191406 12 30 12.808594 30 14L30 15L32 15L32 14C32 12.808594 32.808594 12 34 12L46 12C47.191406 12 48 12.808594 48 14L48 36C48 37.191406 47.191406 38 46 38L34 38C32.808594 38 32 37.191406 32 36L32 35L30 35L30 36C30 37.191406 29.191406 38 28 38L4 38C2.808594 38 2 37.191406 2 36L2 14C2 12.808594 2.808594 12 4 12 Z M 30 17L30 21L32 21L32 17 Z M 6 18L6 20L26 20L26 18 Z M 36 18L36 26L44 26L44 18 Z M 38 20L42 20L42 24L38 24 Z M 30 23L30 27L32 27L32 23 Z M 6 24L6 26L26 26L26 24 Z M 30 29L30 33L32 33L32 29 Z M 6 30L6 32L26 32L26 30 Z M 36 30L36 32L44 32L44 30Z"/></svg>