<svg xmlns="http://www.w3.org/2000/svg" xmlns:xlink="http://www.w3.org/1999/xlink" viewBox="0 0 80 80"><path d="M17 9C15.35503 9 14 10.35503 14 12L14 21L13 21C10.802666 21 9 22.802666 9 25L9 26L9.203125 26C9.6594792 27.706363 11.156406 29 13 29L14 29L14 32L13 32C10.802666 32 9 33.802666 9 36L9 37L9.203125 37C9.6594792 38.706363 11.156406 40 13 40L14 40L14 43L13 43C10.802666 43 9 44.802666 9 47L9 48L9.203125 48C9.6594792 49.706363 11.156406 51 13 51L14 51L14 54L13 54C10.802666 54 9 55.802666 9 58L9 59L9.203125 59C9.6594792 60.706363 11.156406 62 13 62L14 62L14 68C14 69.64497 15.35503 71 17 71L63 71L65 71C66.64497 71 68 69.64497 68 68L68 66L69 66C70.64497 66 72 64.64497 72 63L72 57C72 56.231416 71.695875 55.533353 71.212891 55C71.695875 54.466647 72 53.768584 72 53L72 47C72 46.231416 71.695875 45.533353 71.212891 45C71.695875 44.466647 72 43.768584 72 43L72 37C72 36.231416 71.695875 35.533353 71.212891 35C71.695875 34.466647 72 33.768584 72 33L72 27C72 26.231416 71.695875 25.533353 71.212891 25C71.695875 24.466647 72 23.768584 72 23L72 17C72 15.35503 70.64497 14 69 14L68 14L68 12C68 10.35503 66.64497 9 65 9L63 9L17 9 z M 17 11L63 11L65 11C65.56503 11 66 11.43497 66 12L66 14L66 24L66 68C66 68.56503 65.56503 69 65 69L63 69L17 69C16.43497 69 16 68.56503 16 68L16 61.167969 A 1.0001 1.0001 0 0 0 16 60.841797L16 59 A 1.0001 1.0001 0 1 0 14 59L14 60L13 60C11.883334 60 11 59.116666 11 58C11 56.883334 11.883334 56 13 56L17 56 A 2 2 0 0 0 19 58 A 2 2 0 0 0 21 56 A 2 2 0 0 0 19.070312 54.001953 A 1.0001 1.0001 0 0 0 19 54L16 54L16 50.167969 A 1.0001 1.0001 0 0 0 16 49.841797L16 48 A 1.0001 1.0001 0 0 0 14.984375 46.986328 A 1.0001 1.0001 0 0 0 14 48L14 49L13 49C11.883334 49 11 48.116666 11 47C11 45.883334 11.883334 45 13 45L17 45 A 2 2 0 0 0 19 47 A 2 2 0 0 0 21 45 A 2 2 0 0 0 19.070312 43.001953 A 1.0001 1.0001 0 0 0 19 43L16 43L16 39.167969 A 1.0001 1.0001 0 0 0 16 38.841797L16 37 A 1.0001 1.0001 0 0 0 14.984375 35.986328 A 1.0001 1.0001 0 0 0 14 37L14 38L13 38C11.883334 38 11 37.116666 11 36C11 34.883334 11.883334 34 13 34L14.832031 34 A 1.0001 1.0001 0 0 0 15.158203 34L17 34 A 2 2 0 0 0 19 36 A 2 2 0 0 0 21 34 A 2 2 0 0 0 19.070312 32.001953 A 1.0001 1.0001 0 0 0 19 32L16 32L16 28.167969 A 1.0001 1.0001 0 0 0 16 27.841797L16 26 A 1.0001 1.0001 0 0 0 14.984375 24.986328 A 1.0001 1.0001 0 0 0 14 26L14 27L13 27C11.883334 27 11 26.116666 11 25C11 23.883334 11.883334 23 13 23L14.832031 23 A 1.0001 1.0001 0 0 0 15.158203 23L17 23 A 2 2 0 0 0 19 25 A 2 2 0 0 0 21 23 A 2 2 0 0 0 19.070312 21.001953 A 1.0001 1.0001 0 0 0 19 21L16 21L16 12C16 11.43497 16.43497 11 17 11 z M 23 13 A 1 1 0 0 0 22 14 A 1 1 0 0 0 23 15 A 1 1 0 0 0 24 14 A 1 1 0 0 0 23 13 z M 27 13 A 1 1 0 0 0 26 14 A 1 1 0 0 0 27 15 A 1 1 0 0 0 28 14 A 1 1 0 0 0 27 13 z M 31 13 A 1 1 0 0 0 30 14 A 1 1 0 0 0 31 15 A 1 1 0 0 0 32 14 A 1 1 0 0 0 31 13 z M 35 13 A 1 1 0 0 0 34 14 A 1 1 0 0 0 35 15 A 1 1 0 0 0 36 14 A 1 1 0 0 0 35 13 z M 39 13 A 1 1 0 0 0 38 14 A 1 1 0 0 0 39 15 A 1 1 0 0 0 40 14 A 1 1 0 0 0 39 13 z M 43 13 A 1 1 0 0 0 42 14 A 1 1 0 0 0 43 15 A 1 1 0 0 0 44 14 A 1 1 0 0 0 43 13 z M 47 13 A 1 1 0 0 0 46 14 A 1 1 0 0 0 47 15 A 1 1 0 0 0 48 14 A 1 1 0 0 0 47 13 z M 51 13 A 1 1 0 0 0 50 14 A 1 1 0 0 0 51 15 A 1 1 0 0 0 52 14 A 1 1 0 0 0 51 13 z M 55 13 A 1 1 0 0 0 54 14 A 1 1 0 0 0 55 15 A 1 1 0 0 0 56 14 A 1 1 0 0 0 55 13 z M 59 13 A 1 1 0 0 0 58 14 A 1 1 0 0 0 59 15 A 1 1 0 0 0 60 14 A 1 1 0 0 0 59 13 z M 63 13 A 1 1 0 0 0 62 14 A 1 1 0 0 0 63 15 A 1 1 0 0 0 64 14 A 1 1 0 0 0 63 13 z M 68 16L69 16C69.56503 16 70 16.43497 70 17L70 23C70 23.56503 69.56503 24 69 24L68 24L68 16 z M 63 17 A 1 1 0 0 0 62 18 A 1 1 0 0 0 63 19 A 1 1 0 0 0 64 18 A 1 1 0 0 0 63 17 z M 28 21L28 22L28 38L54 38L54 21L28 21 z M 63 21 A 1 1 0 0 0 62 22 A 1 1 0 0 0 63 23 A 1 1 0 0 0 64 22 A 1 1 0 0 0 63 21 z M 30 23L52 23L52 36L30 36L30 23 z M 63 25 A 1 1 0 0 0 62 26 A 1 1 0 0 0 63 27 A 1 1 0 0 0 64 26 A 1 1 0 0 0 63 25 z M 33 26L33 28L49 28L49 26L33 26 z M 68 26L69 26C69.56503 26 70 26.43497 70 27L70 33C70 33.56503 69.56503 34 69 34L68 34L68 26 z M 63 29 A 1 1 0 0 0 62 30 A 1 1 0 0 0 63 31 A 1 1 0 0 0 64 30 A 1 1 0 0 0 63 29 z M 33 31L33 33L49 33L49 31L33 31 z M 63 33 A 1 1 0 0 0 62 34 A 1 1 0 0 0 63 35 A 1 1 0 0 0 64 34 A 1 1 0 0 0 63 33 z M 68 36L69 36C69.56503 36 70 36.43497 70 37L70 43C70 43.56503 69.56503 44 69 44L68 44L68 36 z M 63 37 A 1 1 0 0 0 62 38 A 1 1 0 0 0 63 39 A 1 1 0 0 0 64 38 A 1 1 0 0 0 63 37 z M 63 41 A 1 1 0 0 0 62 42 A 1 1 0 0 0 63 43 A 1 1 0 0 0 64 42 A 1 1 0 0 0 63 41 z M 63 45 A 1 1 0 0 0 62 46 A 1 1 0 0 0 63 47 A 1 1 0 0 0 64 46 A 1 1 0 0 0 63 45 z M 68 46L69 46C69.56503 46 70 46.43497 70 47L70 53C70 53.56503 69.56503 54 69 54L68 54L68 46 z M 63 49 A 1 1 0 0 0 62 50 A 1 1 0 0 0 63 51 A 1 1 0 0 0 64 50 A 1 1 0 0 0 63 49 z M 63 53 A 1 1 0 0 0 62 54 A 1 1 0 0 0 63 55 A 1 1 0 0 0 64 54 A 1 1 0 0 0 63 53 z M 68 56L69 56C69.56503 56 70 56.43497 70 57L70 63C70 63.56503 69.56503 64 69 64L68 64L68 56 z M 63 57 A 1 1 0 0 0 62 58 A 1 1 0 0 0 63 59 A 1 1 0 0 0 64 58 A 1 1 0 0 0 63 57 z M 63 61 A 1 1 0 0 0 62 62 A 1 1 0 0 0 63 63 A 1 1 0 0 0 64 62 A 1 1 0 0 0 63 61 z M 23 65 A 1 1 0 0 0 22 66 A 1 1 0 0 0 23 67 A 1 1 0 0 0 24 66 A 1 1 0 0 0 23 65 z M 27 65 A 1 1 0 0 0 26 66 A 1 1 0 0 0 27 67 A 1 1 0 0 0 28 66 A 1 1 0 0 0 27 65 z M 31 65 A 1 1 0 0 0 30 66 A 1 1 0 0 0 31 67 A 1 1 0 0 0 32 66 A 1 1 0 0 0 31 65 z M 35 65 A 1 1 0 0 0 34 66 A 1 1 0 0 0 35 67 A 1 1 0 0 0 36 66 A 1 1 0 0 0 35 65 z M 39 65 A 1 1 0 0 0 38 66 A 1 1 0 0 0 39 67 A 1 1 0 0 0 40 66 A 1 1 0 0 0 39 65 z M 43 65 A 1 1 0 0 0 42 66 A 1 1 0 0 0 43 67 A 1 1 0 0 0 44 66 A 1 1 0 0 0 43 65 z M 47 65 A 1 1 0 0 0 46 66 A 1 1 0 0 0 47 67 A 1 1 0 0 0 48 66 A 1 1 0 0 0 47 65 z M 51 65 A 1 1 0 0 0 50 66 A 1 1 0 0 0 51 67 A 1 1 0 0 0 52 66 A 1 1 0 0 0 51 65 z M 55 65 A 1 1 0 0 0 54 66 A 1 1 0 0 0 55 67 A 1 1 0 0 0 56 66 A 1 1 0 0 0 55 65 z M 59 65 A 1 1 0 0 0 58 66 A 1 1 0 0 0 59 67 A 1 1 0 0 0 60 66 A 1 1 0 0 0 59 65 z M 63 65 A 1 1 0 0 0 62 66 A 1 1 0 0 0 63 67 A 1 1 0 0 0 64 66 A 1 1 0 0 0 63 65 z"/></svg>