<svg xmlns="http://www.w3.org/2000/svg" xmlns:xlink="http://www.w3.org/1999/xlink" viewBox="0 0 50 50"><path d="M21.5 0C17.862511 0 15.764909 0.51803896 14.5 1.1230469C13.867545 1.4255508 13.445457 1.7536252 13.171875 2.0449219C12.898293 2.3362186 12.732422 2.7089844 12.732422 2.7089844 A 1.0001 1.0001 0 0 0 12.679688 2.9355469L11.208984 15.623047 A 1.0001 1.0001 0 0 0 11.136719 15.880859C10.683924 18.869115 9.7807409 20.32697 8.2050781 22.392578 A 1.0001 1.0001 0 0 0 8.4453125 23.832031C11.655019 25.971836 14.608329 25.931895 17.902344 25.998047C18.988199 26.615431 20.201211 26.972656 21.5 26.972656C22.798789 26.972656 24.011801 26.615431 25.097656 25.998047C28.391671 25.931898 31.34498 25.971832 34.554688 23.832031 A 1.0001 1.0001 0 0 0 34.794922 22.392578C33.219257 20.32697 32.316076 18.869115 31.863281 15.880859 A 1.0001 1.0001 0 0 0 31.791016 15.623047L30.320312 2.9355469 A 1.0001 1.0001 0 0 0 30.267578 2.7089844C30.267578 2.7089844 30.101707 2.3362186 29.828125 2.0449219C29.554539 1.7536252 29.132455 1.4255508 28.5 1.1230469C27.235091 0.51803895 25.137489 -1.4802974e-16 21.5 0 z M 21.5 2C24.944511 2 26.760581 2.5077423 27.638672 2.9277344C28.072036 3.1350131 28.271973 3.3140151 28.361328 3.4082031L29.542969 13.591797C29.531829 13.566752 29.525327 13.538415 29.513672 13.513672C29.12869 12.696372 28.331635 12.149722 27.533203 11.984375C25.936339 11.653681 24.179865 12.113281 21.5 12.113281C20.160068 12.113281 19.05009 11.997814 18.076172 11.923828C17.102254 11.849838 16.265229 11.819025 15.466797 11.984375C14.668365 12.149722 13.87131 12.696372 13.486328 13.513672C13.474673 13.538415 13.468171 13.566752 13.457031 13.591797L14.638672 3.4082031C14.728032 3.3140151 14.927964 3.1350131 15.361328 2.9277344C16.239419 2.5077423 18.055489 2 21.5 2 z M 20.5 3.7949219L20.5 6.5234375L17.773438 6.5234375L17.773438 8.5234375L20.5 8.5234375L20.5 11.25L22.5 11.25L22.5 8.5234375L25.226562 8.5234375L25.226562 6.5234375L22.5 6.5234375L22.5 3.7949219L20.5 3.7949219 z M 16.669922 13.902344C17.688031 13.928387 19.347399 14.113281 21.5 14.113281C24.370135 14.113281 26.36327 13.782851 27.128906 13.941406C27.511724 14.020686 27.549044 14.038126 27.703125 14.365234C27.857206 14.692341 28 15.436462 28 16.654297C28 21.340272 24.947343 24.972656 21.5 24.972656C18.052657 24.972656 15 21.340272 15 16.654297C15 15.436462 15.142794 14.692341 15.296875 14.365234C15.450956 14.038128 15.488276 14.020684 15.871094 13.941406C16.062503 13.901768 16.330552 13.893663 16.669922 13.902344 z M 13.003906 16.771484C13.029737 19.515251 13.951105 22.055409 15.460938 23.914062C13.654302 23.80313 12.085823 23.520949 10.421875 22.621094C11.600281 20.943661 12.533632 19.247285 13.003906 16.771484 z M 29.996094 16.771484C30.466368 19.247285 31.399719 20.943661 32.578125 22.621094C30.914177 23.520946 29.345698 23.80313 27.539062 23.914062C29.048895 22.055409 29.970263 19.515251 29.996094 16.771484 z M 21.5 28C15.696824 28 10.429075 29.431479 6.5449219 31.542969C2.660769 33.654458 1.1842379e-15 36.458101 0 39.554688L0 47L30.457031 47 A 1.0001 1.0001 0 1 0 30.457031 45L2 45L2 39.554688C2 37.700274 3.9529029 35.227089 7.5 33.298828C9.6163338 32.148354 12.25057 31.203823 15.1875 30.623047L20.591797 42.416016 A 1.0001 1.0001 0 0 0 22.408203 42.416016L27.814453 30.623047C28.318851 30.722695 28.821464 30.824509 29.306641 30.945312 A 1.0002234 1.0002234 0 1 0 29.789062 29.003906C27.236642 28.36838 24.436888 28 21.5 28 z M 38.130859 28.998047 A 1.0002746 1.0002746 0 0 0 37.964844 29.009766C35.937486 29.058153 34.191119 29.730926 32.960938 30.931641C31.683772 32.178212 31 33.952516 31 35.9375C31 37.443505 31.557829 38.627241 32.121094 39.650391C32.684359 40.673541 33.24982 41.573189 33.552734 42.691406C33.921208 44.087032 34.186802 45.727178 34.623047 47.113281C34.841464 47.80727 35.095843 48.44706 35.515625 48.994141C35.935407 49.541221 36.633359 50 37.421875 50C38.137624 50 38.87396 49.701059 39.333984 49.136719C39.794009 48.572379 39.970703 47.846901 39.970703 47.060547C39.970703 45.779483 40.247816 44.088048 40.5 42.494141C40.752199 44.078922 41.029297 45.778352 41.029297 47.060547C41.029297 47.846901 41.205991 48.572379 41.666016 49.136719C42.12604 49.701059 42.862376 50 43.578125 50C44.370213 50 45.067725 49.536188 45.486328 48.986328C45.904931 48.436469 46.158791 47.793548 46.376953 47.097656C46.812912 45.707036 47.079559 44.065446 47.447266 42.691406C47.750636 41.573108 48.315477 40.673344 48.878906 39.650391C49.441504 38.628947 49.996404 37.446194 49.998047 35.943359C50.017957 33.958547 49.34426 32.180802 48.072266 30.933594C46.798896 29.685037 44.970268 29 42.84375 29C41.990315 29 41.237358 29.147363 40.525391 29.361328C39.82038 29.148567 39.072062 29.005976 38.230469 29.001953 A 1.0001 1.0001 0 0 0 38.130859 28.998047 z M 21.5 30C22.966849 30 24.393718 30.102477 25.771484 30.283203L21.5 39.601562L17.230469 30.285156C18.607563 30.104116 20.034363 30 21.5 30 z M 42.84375 31C44.550232 31 45.817448 31.521635 46.673828 32.361328C47.530209 33.201021 48.016563 34.392143 48 35.927734L48 35.931641L48 35.9375C48 36.964495 47.648024 37.7395 47.126953 38.685547C46.605883 39.631594 45.912208 40.713267 45.517578 42.167969L45.515625 42.167969L45.515625 42.169922C45.109855 43.6851 44.835926 45.328784 44.46875 46.5C44.285162 47.085608 44.070116 47.542797 43.894531 47.773438C43.718947 48.004078 43.696037 48 43.578125 48C43.325874 48 43.287319 47.96196 43.214844 47.873047C43.142364 47.784137 43.029297 47.541192 43.029297 47.060547C43.029297 45.15467 42.670643 42.804034 42.318359 40.84375C42.168432 39.924839 41.31121 39.291016 40.513672 39.291016C39.716134 39.291016 38.87319 39.895381 38.6875 40.804688L38.683594 40.816406L38.681641 40.830078C38.330543 42.826696 37.970703 45.148909 37.970703 47.060547C37.970703 47.541192 37.855679 47.784137 37.783203 47.873047C37.710769 47.961957 37.674126 48 37.421875 48C37.300391 48 37.275968 48.0046 37.101562 47.777344C36.927157 47.550049 36.714582 47.096183 36.53125 46.513672C36.164585 45.34865 35.889126 43.704978 35.484375 42.173828L35.482422 42.171875L35.482422 42.167969C35.088383 40.713227 34.394032 39.63385 33.873047 38.6875C33.352062 37.74115 33 36.964495 33 35.9375C33 34.399484 33.49704 33.20496 34.359375 32.363281C35.207423 31.535548 36.44887 31.020849 38.113281 31.003906C39.463096 31.110587 40.628182 31.72347 41.460938 32.705078 A 1.0004546 1.0004546 0 0 0 42.986328 31.410156C42.869604 31.272568 42.743797 31.143101 42.617188 31.015625C42.696907 31.013347 42.760998 31 42.84375 31 z"/></svg>