<svg xmlns="http://www.w3.org/2000/svg" xmlns:xlink="http://www.w3.org/1999/xlink" viewBox="0 0 64 64"><path d="M10 2C8.898438 2 8 2.898438 8 4L8 8C8 9.101563 8.898438 10 10 10L10 13.503906C9.179688 13.070313 8.234375 12.9375 7.304688 13.167969C5.917969 13.515625 4.851563 14.59375 4.519531 15.984375L0.46875 32.96875C-0.191406 35.753906 0.519531 38.71875 2.378906 40.898438L8.320313 47.859375C9.328125 49.042969 9.726563 50.597656 9.410156 52.125L8.523438 58.390625C8.335938 59.277344 8.5625 60.191406 9.132813 60.894531C9.703125 61.597656 10.550781 62 11.457031 62L21 62C22.652344 62 24 60.652344 24 59L24 47.472656C24 44.347656 22.875 41.328125 20.828125 38.964844L18.261719 36L45.738281 36L43.171875 38.964844C41.125 41.328125 40 44.347656 40 47.472656L40 59C40 60.652344 41.347656 62 43 62L52.542969 62C53.449219 62 54.296875 61.597656 54.871094 60.890625C55.441406 60.1875 55.664063 59.277344 55.480469 58.390625L54.589844 52.125C54.273438 50.597656 54.671875 49.042969 55.683594 47.859375L61.621094 40.894531C63.480469 38.71875 64.191406 35.753906 63.53125 32.96875L59.480469 15.984375C59.148438 14.59375 58.082031 13.511719 56.6875 13.164063C55.765625 12.933594 54.820313 13.070313 54 13.503906L54 10C55.101563 10 56 9.101563 56 8L56 4C56 2.898438 55.101563 2 54 2 Z M 10 4L54 4L54 8L51 8C50.449219 8 50 8.449219 50 9C50 9.550781 50.449219 10 51 10L52 10L52 27.28125C51.429688 27.367188 50.878906 27.570313 50.386719 27.890625C49.445313 28.5 48.792969 29.488281 48.601563 30.59375L48.3125 32.246094C48.210938 32.851563 47.945313 33.421875 47.578125 33.875L47.46875 34L16.53125 34L16.441406 33.894531C16.050781 33.421875 15.789063 32.851563 15.6875 32.246094L15.398438 30.59375C15.207031 29.488281 14.554688 28.5 13.613281 27.890625C13.121094 27.570313 12.570313 27.367188 12 27.28125L12 10L39 10C39.554688 10 40 9.550781 40 9C40 8.449219 39.554688 8 39 8L10 8 Z M 43 8C42.449219 8 42 8.449219 42 9C42 9.550781 42.449219 10 43 10L47 10C47.550781 10 48 9.550781 48 9C48 8.449219 47.550781 8 47 8 Z M 27 12C25.347656 12 24 13.347656 24 15C24 16.652344 25.347656 18 27 18L37 18C38.652344 18 40 16.652344 40 15C40 13.347656 38.652344 12 37 12 Z M 27 14L37 14C37.550781 14 38 14.449219 38 15C38 15.550781 37.550781 16 37 16L27 16C26.449219 16 26 15.550781 26 15C26 14.449219 26.449219 14 27 14 Z M 8.234375 15.050781C8.636719 15.050781 9.03125 15.183594 9.351563 15.441406C9.796875 15.792969 10.050781 16.316406 10.046875 16.878906L9.945313 27.476563C9.066406 27.761719 8.40625 28.515625 8.242188 29.433594L7.804688 31.863281C7.390625 34.160156 7.9375 36.558594 9.300781 38.449219L11.730469 41.816406C12.054688 42.265625 12.679688 42.367188 13.125 42.042969C13.574219 41.71875 13.675781 41.09375 13.351563 40.644531L10.921875 37.28125C9.871094 35.828125 9.453125 33.984375 9.773438 32.21875L10.210938 29.785156C10.246094 29.582031 10.402344 29.417969 10.601563 29.367188L10.90625 29.292969C11.460938 29.152344 12.039063 29.246094 12.523438 29.5625C13.007813 29.878906 13.328125 30.363281 13.425781 30.933594L13.714844 32.589844C13.878906 33.53125 14.285156 34.421875 14.910156 35.183594L19.316406 40.269531C21.046875 42.269531 22 44.828125 22 47.472656L22 54L11.0625 54L11.367188 52.53125C11.8125 50.394531 11.253906 48.21875 9.839844 46.5625L3.898438 39.597656C2.453125 37.90625 1.898438 35.601563 2.414063 33.433594L6.464844 16.449219C6.621094 15.785156 7.132813 15.273438 7.796875 15.109375C7.941406 15.070313 8.089844 15.050781 8.234375 15.050781 Z M 55.796875 15.050781C55.933594 15.054688 56.074219 15.074219 56.210938 15.109375C56.871094 15.273438 57.378906 15.789063 57.535156 16.449219L61.585938 33.433594C62.101563 35.601563 61.542969 37.90625 60.097656 39.597656L54.160156 46.5625C52.746094 48.21875 52.1875 50.394531 52.632813 52.53125L52.9375 54L42 54L42 47.472656C42 44.828125 42.953125 42.273438 44.683594 40.273438L49.109375 35.164063C49.714844 34.425781 50.121094 33.535156 50.285156 32.589844L50.574219 30.9375C50.671875 30.367188 50.992188 29.878906 51.476563 29.5625C51.816406 29.34375 52.199219 29.234375 52.59375 29.234375C52.757813 29.234375 52.929688 29.253906 53.097656 29.296875L53.398438 29.371094C53.597656 29.417969 53.753906 29.582031 53.792969 29.785156L54.230469 32.21875C54.546875 33.984375 54.125 35.828125 53.078125 37.28125L50.652344 40.648438C50.328125 41.09375 50.429688 41.722656 50.875 42.046875C51.324219 42.367188 51.949219 42.265625 52.269531 41.816406L54.703125 38.453125C56.066406 36.558594 56.609375 34.160156 56.199219 31.867188L55.761719 29.433594C55.59375 28.515625 54.9375 27.765625 54.058594 27.480469L53.957031 16.882813C53.953125 16.320313 54.203125 15.792969 54.644531 15.441406C54.980469 15.179688 55.382813 15.046875 55.796875 15.050781 Z M 17 28C16.449219 28 16 28.449219 16 29L16 31C16 31.550781 16.449219 32 17 32C17.550781 32 18 31.550781 18 31L18 29C18 28.449219 17.550781 28 17 28 Z M 22 28C21.449219 28 21 28.449219 21 29L21 31C21 31.550781 21.449219 32 22 32C22.550781 32 23 31.550781 23 31L23 29C23 28.449219 22.550781 28 22 28 Z M 27 28C26.449219 28 26 28.449219 26 29L26 31C26 31.550781 26.449219 32 27 32C27.550781 32 28 31.550781 28 31L28 29C28 28.449219 27.550781 28 27 28 Z M 32 28C31.449219 28 31 28.449219 31 29L31 31C31 31.550781 31.449219 32 32 32C32.550781 32 33 31.550781 33 31L33 29C33 28.449219 32.550781 28 32 28 Z M 37 28C36.449219 28 36 28.449219 36 29L36 31C36 31.550781 36.449219 32 37 32C37.550781 32 38 31.550781 38 31L38 29C38 28.449219 37.550781 28 37 28 Z M 42 28C41.449219 28 41 28.449219 41 29L41 31C41 31.550781 41.449219 32 42 32C42.550781 32 43 31.550781 43 31L43 29C43 28.449219 42.550781 28 42 28 Z M 47 28C46.449219 28 46 28.449219 46 29L46 31C46 31.550781 46.449219 32 47 32C47.550781 32 48 31.550781 48 31L48 29C48 28.449219 47.550781 28 47 28 Z M 10.644531 56L22 56L22 59C22 59.550781 21.550781 60 21 60L11.457031 60C11.15625 60 10.875 59.863281 10.683594 59.628906C10.492188 59.398438 10.417969 59.09375 10.480469 58.796875 Z M 42 56L53.355469 56L53.519531 58.796875C53.582031 59.09375 53.507813 59.394531 53.316406 59.628906C53.125 59.863281 52.839844 60 52.539063 60L43 60C42.449219 60 42 59.550781 42 59Z"/></svg>