<svg xmlns="http://www.w3.org/2000/svg" xmlns:xlink="http://www.w3.org/1999/xlink" viewBox="0 0 64 64"><path d="M10.330078 6C9.2600781 6 8.1900781 6.35 7.3300781 7L2 11C0.75 11.94 0 13.43 0 15L0 53C0 54.65 1.35 56 3 56L51 56C52.65 56 54 54.65 54 53L54 44.419922L63.710938 34.710938C64.100937 34.320937 64.100937 33.679062 63.710938 33.289062L54 23.580078L54 15C54 13.43 53.25 11.94 52 11L46.669922 7C45.809922 6.35 44.739922 6 43.669922 6L10.330078 6 z M 10.330078 8L26 8L26 12.056641L3.9238281 12.056641L8.5292969 8.5996094C9.0492969 8.2096094 9.6900781 8 10.330078 8 z M 28 8L43.669922 8C44.309922 8 44.950703 8.2096094 45.470703 8.5996094L50.800781 12.599609C51.550781 13.159609 52 14.06 52 15L52 22C51.74 22 51.479062 22.099062 51.289062 22.289062L47.289062 26.289062C46.899062 26.679063 46.899063 27.320938 47.289062 27.710938L49.589844 30L31 30C30.45 30 30 30.45 30 31L30 37C30 37.55 30.45 38 31 38L49.589844 38L47.289062 40.289062C46.899062 40.679063 46.899063 41.320938 47.289062 41.710938L51.289062 45.710938C51.489062 45.900937 51.74 46 52 46L52 53C52 53.55 51.55 54 51 54L3 54C2.45 54 2 53.55 2 53L2 15C2 14.675 2.0718281 14.360641 2.1738281 14.056641L39 14.056641C39.552 14.056641 40 13.608641 40 13.056641C40 12.504641 39.552 12.056641 39 12.056641L28 12.056641L28 8 z M 43 12.056641C42.448 12.056641 42 12.504641 42 13.056641C42 13.608641 42.448 14.056641 43 14.056641L47 14.056641C47.552 14.056641 48 13.608641 48 13.056641C48 12.504641 47.552 12.056641 47 12.056641L43 12.056641 z M 22 18C20.346 18 19 19.346 19 21C19 22.654 20.346 24 22 24L32 24C33.654 24 35 22.654 35 21C35 19.346 33.654 18 32 18L22 18 z M 22 20L32 20C32.551 20 33 20.449 33 21C33 21.551 32.551 22 32 22L22 22C21.449 22 21 21.551 21 21C21 20.449 21.449 20 22 20 z M 52 24.410156L54 26.410156L61.589844 34L54 41.589844L52 43.589844L49.410156 41L52 38.419922L52.710938 37.710938C52.990938 37.420938 53.079922 36.989141 52.919922 36.619141C52.769922 36.239141 52.4 36 52 36L32 36L32 32L52 32C52.4 32 52.769922 31.760859 52.919922 31.380859C53.079922 31.010859 52.990937 30.579062 52.710938 30.289062L52 29.580078L49.410156 27L52 24.410156 z M 5 48.056641C4.448 48.056641 4 48.504641 4 49.056641L4 51.056641C4 51.608641 4.448 52.056641 5 52.056641C5.552 52.056641 6 51.608641 6 51.056641L6 49.056641C6 48.504641 5.552 48.056641 5 48.056641 z M 10 48.056641C9.448 48.056641 9 48.504641 9 49.056641L9 51.056641C9 51.608641 9.448 52.056641 10 52.056641C10.552 52.056641 11 51.608641 11 51.056641L11 49.056641C11 48.504641 10.552 48.056641 10 48.056641 z M 15 48.056641C14.448 48.056641 14 48.504641 14 49.056641L14 51.056641C14 51.608641 14.448 52.056641 15 52.056641C15.552 52.056641 16 51.608641 16 51.056641L16 49.056641C16 48.504641 15.552 48.056641 15 48.056641 z M 20 48.056641C19.448 48.056641 19 48.504641 19 49.056641L19 51.056641C19 51.608641 19.448 52.056641 20 52.056641C20.552 52.056641 21 51.608641 21 51.056641L21 49.056641C21 48.504641 20.552 48.056641 20 48.056641 z M 25 48.056641C24.448 48.056641 24 48.504641 24 49.056641L24 51.056641C24 51.608641 24.448 52.056641 25 52.056641C25.552 52.056641 26 51.608641 26 51.056641L26 49.056641C26 48.504641 25.552 48.056641 25 48.056641 z M 30 48.056641C29.448 48.056641 29 48.504641 29 49.056641L29 51.056641C29 51.608641 29.448 52.056641 30 52.056641C30.552 52.056641 31 51.608641 31 51.056641L31 49.056641C31 48.504641 30.552 48.056641 30 48.056641 z M 35 48.056641C34.448 48.056641 34 48.504641 34 49.056641L34 51.056641C34 51.608641 34.448 52.056641 35 52.056641C35.552 52.056641 36 51.608641 36 51.056641L36 49.056641C36 48.504641 35.552 48.056641 35 48.056641 z M 40 48.056641C39.448 48.056641 39 48.504641 39 49.056641L39 51.056641C39 51.608641 39.448 52.056641 40 52.056641C40.552 52.056641 41 51.608641 41 51.056641L41 49.056641C41 48.504641 40.552 48.056641 40 48.056641 z M 45 48.056641C44.448 48.056641 44 48.504641 44 49.056641L44 51.056641C44 51.608641 44.448 52.056641 45 52.056641C45.552 52.056641 46 51.608641 46 51.056641L46 49.056641C46 48.504641 45.552 48.056641 45 48.056641 z M 50 48.056641C49.448 48.056641 49 48.504641 49 49.056641L49 51.056641C49 51.608641 49.448 52.056641 50 52.056641C50.552 52.056641 51 51.608641 51 51.056641L51 49.056641C51 48.504641 50.552 48.056641 50 48.056641 z"/></svg>