<svg xmlns="http://www.w3.org/2000/svg" xmlns:xlink="http://www.w3.org/1999/xlink" viewBox="0 0 16 16" fill="#FFFFFF">
  <path d="M7.5 1C3.917969 1 1 3.917969 1 7.5C1 11.082031 3.917969 14 7.5 14C11.082031 14 14 11.082031 14 7.5C14 3.917969 11.082031 1 7.5 1 Z M 7.5 2C10.542969 2 13 4.457031 13 7.5C13 8.839844 12.523438 10.0625 11.734375 11.015625C11.304688 9.796875 10.375 8.816406 9.1875 8.332031C9.683594 7.875 10 7.222656 10 6.5C10 5.125 8.875 4 7.5 4C6.125 4 5 5.125 5 6.5C5 7.222656 5.316406 7.875 5.8125 8.332031C4.625 8.816406 3.699219 9.796875 3.269531 11.015625C2.476563 10.0625 2 8.839844 2 7.5C2 4.457031 4.457031 2 7.5 2 Z M 7.5 5C8.335938 5 9 5.664063 9 6.5C9 7.335938 8.335938 8 7.5 8C6.664063 8 6 7.335938 6 6.5C6 5.664063 6.664063 5 7.5 5 Z M 7.5 9C9.199219 9 10.59375 10.207031 10.917969 11.808594C9.976563 12.554688 8.792969 13 7.5 13C6.207031 13 5.023438 12.554688 4.085938 11.808594C4.40625 10.207031 5.800781 9 7.5 9Z" fill="#FFFFFF" />
</svg>