<svg xmlns="http://www.w3.org/2000/svg" xmlns:xlink="http://www.w3.org/1999/xlink" viewBox="0 0 64 64"><path d="M22.332031 0.0078125C21.949219 -0.0195313 21.554688 0.0625 21.195313 0.269531L16 3.269531C15.539063 3.535156 15.207031 3.964844 15.066406 4.484375C14.929688 5 15 5.539063 15.265625 6L18.269531 11.199219L17.402344 11.699219C15.96875 12.519531 15.480469 14.359375 16.300781 15.789063L20.800781 23.589844C19.710938 24.21875 18.859375 25.148438 18.347656 26.28125C12.320313 27.507813 8 32.769531 8 39L8 62L5 62C4.449219 62 4 62.449219 4 63C4 63.550781 4.449219 64 5 64L59 64C59.550781 64 60 63.550781 60 63C60 62.449219 59.550781 62 59 62L56 62L56 59C56 57.351563 54.648438 56 53 56L43.71875 56L54.289063 49.890625C55.667969 49.101563 56.25 47.398438 55.628906 46.011719C55.28125 45.238281 54.621094 44.640625 53.8125 44.378906C53.011719 44.128906 52.128906 44.21875 51.390625 44.640625L38.652344 52L16 52L16 41C16 37.78125 18.160156 35.011719 21.269531 34.21875C21.578125 34.371094 21.910156 34.488281 22.25 34.578125C23.800781 34.988281 25.421875 34.78125 26.800781 33.980469L31.800781 42.640625C30.371094 43.46875 29.878906 45.304688 30.703125 46.738281C31.261719 47.699219 32.269531 48.238281 33.308594 48.238281C33.816406 48.238281 34.332031 48.109375 34.804688 47.839844L50.390625 38.839844C51.824219 38.011719 52.316406 36.171875 51.488281 34.738281C50.664063 33.308594 48.824219 32.816406 47.390625 33.640625L31.890625 6.789063C31.0625 5.359375 29.230469 4.871094 27.789063 5.699219L26.929688 6.195313L23.925781 1C23.582031 0.402344 22.972656 0.0507813 22.332031 0.0078125 Z M 22.195313 2L25.195313 7.195313L20 10.195313L17 5 Z M 29.167969 7.304688C29.554688 7.253906 29.949219 7.4375 30.160156 7.789063L45.660156 34.640625L38.707031 38.65625L33.539063 41.640625L28.539063 32.980469C28.269531 32.519531 27.839844 32.191406 27.316406 32.050781C27.148438 32 26.96875 31.980469 26.796875 31.980469C26.449219 31.980469 26.109375 32.070313 25.796875 32.25C24.878906 32.78125 23.800781 32.929688 22.769531 32.652344C22.429688 32.558594 22.109375 32.429688 21.816406 32.25C21.207031 31.910156 20.699219 31.410156 20.339844 30.78125C19.8125 29.859375 19.660156 28.78125 19.9375 27.75C19.988281 27.550781 20.0625 27.359375 20.140625 27.179688C20.480469 26.398438 21.0625 25.75 21.800781 25.320313C22.269531 25.050781 22.601563 24.621094 22.738281 24.109375C22.871094 23.589844 22.800781 23.050781 22.539063 22.589844L18.039063 14.789063C17.898438 14.558594 17.871094 14.289063 17.9375 14.039063C18.007813 13.777344 18.171875 13.558594 18.402344 13.429688L19.296875 12.914063L27.929688 7.929688L27.925781 7.929688L28.789063 7.429688C28.910156 7.359375 29.039063 7.320313 29.167969 7.304688 Z M 28.492188 10.351563C28.363281 10.367188 28.234375 10.410156 28.113281 10.480469L26.386719 11.480469C25.90625 11.753906 25.742188 12.367188 26.015625 12.84375C26.203125 13.167969 26.539063 13.34375 26.886719 13.34375C27.054688 13.34375 27.226563 13.300781 27.386719 13.210938L29.113281 12.210938C29.59375 11.933594 29.757813 11.324219 29.484375 10.84375C29.273438 10.488281 28.878906 10.304688 28.492188 10.351563 Z M 30.992188 14.683594C30.863281 14.699219 30.734375 14.738281 30.613281 14.808594L28.886719 15.808594C28.40625 16.085938 28.242188 16.695313 28.515625 17.175781C28.703125 17.496094 29.039063 17.675781 29.386719 17.675781C29.554688 17.675781 29.726563 17.632813 29.886719 17.542969L31.613281 16.542969C32.09375 16.265625 32.257813 15.652344 31.984375 15.175781C31.773438 14.816406 31.378906 14.632813 30.992188 14.683594 Z M 33.492188 19.011719C33.363281 19.027344 33.234375 19.070313 33.113281 19.140625L31.386719 20.140625C30.90625 20.414063 30.742188 21.027344 31.015625 21.503906C31.203125 21.828125 31.539063 22.003906 31.886719 22.003906C32.054688 22.003906 32.226563 21.960938 32.386719 21.871094L34.113281 20.871094C34.59375 20.59375 34.757813 19.984375 34.484375 19.503906C34.273438 19.148438 33.878906 18.964844 33.492188 19.011719 Z M 35.992188 23.34375C35.863281 23.359375 35.734375 23.398438 35.613281 23.46875L33.886719 24.46875C33.40625 24.746094 33.242188 25.355469 33.515625 25.835938C33.703125 26.15625 34.039063 26.335938 34.386719 26.335938C34.554688 26.335938 34.726563 26.292969 34.886719 26.203125L36.613281 25.203125C37.09375 24.925781 37.257813 24.3125 36.984375 23.835938C36.773438 23.476563 36.378906 23.292969 35.992188 23.34375 Z M 23.933594 26.785156C23.539063 26.761719 23.152344 26.851563 22.804688 27.050781C22.339844 27.320313 22.011719 27.75 21.871094 28.265625C21.734375 28.785156 21.804688 29.320313 22.074219 29.785156C22.441406 30.425781 23.113281 30.78125 23.808594 30.78125C24.144531 30.78125 24.492188 30.699219 24.804688 30.515625C25.757813 29.964844 26.085938 28.738281 25.535156 27.78125C25.269531 27.320313 24.835938 26.992188 24.320313 26.851563C24.191406 26.816406 24.0625 26.796875 23.933594 26.785156 Z M 38.492188 27.671875C38.363281 27.6875 38.234375 27.730469 38.113281 27.796875L36.386719 28.796875C35.90625 29.074219 35.742188 29.6875 36.015625 30.164063C36.203125 30.484375 36.539063 30.664063 36.886719 30.664063C37.054688 30.664063 37.226563 30.621094 37.386719 30.53125L39.113281 29.53125C39.59375 29.253906 39.757813 28.640625 39.484375 28.164063C39.273438 27.804688 38.878906 27.625 38.492188 27.671875 Z M 17.8125 28.480469C17.75 29.628906 18.019531 30.769531 18.609375 31.78125C18.820313 32.140625 19.058594 32.46875 19.328125 32.78125C16.128906 34.210938 14 37.390625 14 41L14 52C14 53.101563 14.898438 54 16 54L38.910156 54C39.089844 54 39.261719 53.949219 39.410156 53.871094L52.390625 46.371094C52.640625 46.230469 52.929688 46.199219 53.199219 46.289063C53.46875 46.378906 53.691406 46.570313 53.8125 46.828125C54.011719 47.289063 53.777344 47.878906 53.289063 48.160156L40.5 55.550781C40.316406 55.65625 40.183594 55.816406 40.097656 56L23 56C22.449219 56 22 56.449219 22 57C22 57.550781 22.449219 58 23 58L53 58C53.550781 58 54 58.449219 54 59L54 62L10 62L10 39C10 34.058594 13.210938 29.839844 17.8125 28.480469 Z M 40.992188 32C40.863281 32.019531 40.734375 32.058594 40.613281 32.128906L38.886719 33.128906C38.40625 33.40625 38.242188 34.015625 38.515625 34.496094C38.703125 34.816406 39.039063 34.996094 39.386719 34.996094C39.554688 34.996094 39.726563 34.953125 39.886719 34.859375L41.613281 33.859375C42.09375 33.585938 42.257813 32.972656 41.984375 32.496094C41.773438 32.136719 41.378906 31.953125 40.992188 32 Z M 48.890625 35.238281C49.238281 35.238281 49.574219 35.417969 49.761719 35.738281C50.035156 36.21875 49.871094 36.828125 49.390625 37.105469L33.804688 46.105469C33.328125 46.382813 32.714844 46.21875 32.4375 45.738281C32.164063 45.261719 32.328125 44.648438 32.804688 44.375L48.390625 35.375C48.550781 35.28125 48.722656 35.238281 48.890625 35.238281 Z M 15 56C14.449219 56 14 56.449219 14 57C14 57.550781 14.449219 58 15 58L19 58C19.550781 58 20 57.550781 20 57C20 56.449219 19.550781 56 19 56Z"/></svg>