<svg xmlns="http://www.w3.org/2000/svg" xmlns:xlink="http://www.w3.org/1999/xlink" viewBox="0 0 64 64"><path d="M15 4.351563C14.328125 4.351563 13.65625 4.488281 13.03125 4.757813L1.816406 9.5625C0.714844 10.035156 0 11.117188 0 12.316406L0 27.683594C0 28.882813 0.714844 29.964844 1.820313 30.4375L13.03125 35.242188C13.65625 35.511719 14.328125 35.644531 15 35.644531C15.671875 35.644531 16.34375 35.511719 16.96875 35.242188L17.863281 34.859375L17.863281 52.511719C17.863281 53.710938 18.582031 54.792969 19.6875 55.265625L38.964844 63.53125C39.589844 63.796875 40.261719 63.933594 40.933594 63.933594C41.605469 63.933594 42.277344 63.796875 42.902344 63.53125L55.320313 58.207031C55.320313 58.207031 55.324219 58.203125 55.324219 58.203125L62.183594 55.265625C62.945313 54.941406 63.511719 54.320313 63.796875 53.574219C63.914063 53.410156 64 53.21875 64 53L64 26.777344C64 25.574219 63.285156 24.492188 62.183594 24.019531L42.902344 15.757813C41.652344 15.222656 40.214844 15.222656 38.964844 15.757813L30 19.597656L30 12.316406C30 11.117188 29.285156 10.035156 28.183594 9.5625L16.96875 4.757813C16.34375 4.488281 15.671875 4.351563 15 4.351563 Z M 15 6.351563C15.402344 6.351563 15.804688 6.433594 16.183594 6.59375L26.464844 11L15 15.910156L3.539063 11L13.816406 6.59375C14.195313 6.433594 14.597656 6.351563 15 6.351563 Z M 2 12.515625L14 17.65625L14 33.464844C13.941406 33.441406 13.878906 33.429688 13.816406 33.40625L2.605469 28.601563C2.238281 28.441406 2 28.082031 2 27.683594 Z M 28 12.515625L28 20.453125L19.6875 24.019531C18.582031 24.492188 17.867188 25.574219 17.867188 26.777344L17.867188 32.683594L16.183594 33.40625C16.121094 33.429688 16.058594 33.441406 16 33.464844L16 17.65625 Z M 40.933594 17.355469C41.335938 17.355469 41.738281 17.433594 42.113281 17.59375L60.464844 25.457031L54.9375 27.828125L35.492188 19.421875L39.75 17.59375C40.128906 17.433594 40.53125 17.355469 40.933594 17.355469 Z M 32.960938 20.503906L52.40625 28.910156L40.933594 33.828125L21.40625 25.457031 Z M 19.867188 26.972656L39.933594 35.574219L39.933594 61.75C39.875 61.726563 39.8125 61.714844 39.75 61.691406L20.472656 53.429688C20.105469 53.273438 19.867188 52.910156 19.867188 52.511719 Z M 62 26.972656L62 52.511719C62 52.910156 61.761719 53.273438 61.394531 53.429688L55.933594 55.769531L55.933594 29.574219 Z M 53.933594 30.429688L53.933594 56.625L42.113281 61.691406C42.054688 61.714844 41.992188 61.726563 41.933594 61.75L41.933594 35.574219 Z M 22 48C21.445313 48 21 48.449219 21 49L21 51C21 51.550781 21.445313 52 22 52C22.554688 52 23 51.550781 23 51L23 49C23 48.449219 22.554688 48 22 48 Z M 27 50C26.445313 50 26 50.449219 26 51L26 53C26 53.550781 26.445313 54 27 54C27.554688 54 28 53.550781 28 53L28 51C28 50.449219 27.554688 50 27 50 Z M 32 52C31.445313 52 31 52.449219 31 53L31 55C31 55.550781 31.445313 56 32 56C32.554688 56 33 55.550781 33 55L33 53C33 52.449219 32.554688 52 32 52 Z M 37 54C36.445313 54 36 54.449219 36 55L36 57C36 57.550781 36.445313 58 37 58C37.554688 58 38 57.550781 38 57L38 55C38 54.449219 37.554688 54 37 54Z"/></svg>