<svg xmlns="http://www.w3.org/2000/svg" xmlns:xlink="http://www.w3.org/1999/xlink" viewBox="0 0 64 64"><path d="M3 6C1.351563 6 0 7.351563 0 9L0 51C0 52.648438 1.351563 54 3 54L37.449219 54L37.097656 57.820313C37.050781 58.378906 37.238281 58.929688 37.621094 59.347656C38 59.757813 38.53125 60 39.097656 60L62.902344 60C63.46875 60 64 59.757813 64.378906 59.347656C64.761719 58.929688 64.949219 58.378906 64.902344 57.820313L63.078125 37.820313C62.980469 36.78125 62.128906 36 61.089844 36L57.921875 36C57.703125 34.488281 57.007813 33.128906 55.984375 32.09375C55.984375 32.0625 56 32.039063 56 32.011719L56 9C56 7.351563 54.648438 6 53 6 Z M 3 8L53 8C53.550781 8 54 8.449219 54 9L54 12L2 12L2 9C2 8.449219 2.449219 8 3 8 Z M 2 14L54 14L54 30.6875C53.089844 30.25 52.074219 30 51 30C47.480469 30 44.566406 32.613281 44.078125 36L40.910156 36C39.871094 36 39.019531 36.78125 38.921875 37.820313L37.628906 52L3 52C2.449219 52 2 51.550781 2 51 Z M 15 18C14.746094 18 14.488281 18.097656 14.292969 18.292969L11 21.585938L9.707031 20.292969C9.316406 19.902344 8.683594 19.902344 8.292969 20.292969C7.902344 20.683594 7.902344 21.316406 8.292969 21.707031L10.292969 23.707031C10.488281 23.902344 10.742188 24 11 24C11.257813 24 11.511719 23.902344 11.707031 23.707031L15.707031 19.707031C16.097656 19.316406 16.097656 18.683594 15.707031 18.292969C15.511719 18.097656 15.253906 18 15 18 Z M 19 20C18.449219 20 18 20.449219 18 21C18 21.550781 18.449219 22 19 22L23 22C23.550781 22 24 21.550781 24 21C24 20.449219 23.550781 20 23 20 Z M 27 20C26.449219 20 26 20.449219 26 21C26 21.550781 26.449219 22 27 22L44 22C44.550781 22 45 21.550781 45 21C45 20.449219 44.550781 20 44 20 Z M 15 26C14.746094 26 14.488281 26.097656 14.292969 26.292969L11 29.585938L9.707031 28.292969C9.316406 27.902344 8.683594 27.902344 8.292969 28.292969C7.902344 28.683594 7.902344 29.316406 8.292969 29.707031L10.292969 31.707031C10.488281 31.902344 10.742188 32 11 32C11.257813 32 11.511719 31.902344 11.707031 31.707031L15.707031 27.707031C16.097656 27.316406 16.097656 26.683594 15.707031 26.292969C15.511719 26.097656 15.253906 26 15 26 Z M 19 28C18.449219 28 18 28.449219 18 29C18 29.550781 18.449219 30 19 30L44 30C44.550781 30 45 29.550781 45 29C45 28.449219 44.550781 28 44 28 Z M 51 32C53.414063 32 55.433594 33.722656 55.898438 36L46.101563 36C46.566406 33.722656 48.585938 32 51 32 Z M 15 34C14.746094 34 14.488281 34.097656 14.292969 34.292969L11 37.585938L9.707031 36.292969C9.316406 35.902344 8.683594 35.902344 8.292969 36.292969C7.902344 36.683594 7.902344 37.316406 8.292969 37.707031L10.292969 39.707031C10.488281 39.902344 10.742188 40 11 40C11.257813 40 11.511719 39.902344 11.707031 39.707031L15.707031 35.707031C16.097656 35.316406 16.097656 34.683594 15.707031 34.292969C15.511719 34.097656 15.253906 34 15 34 Z M 19 36C18.449219 36 18 36.449219 18 37C18 37.550781 18.449219 38 19 38L34 38C34.550781 38 35 37.550781 35 37C35 36.449219 34.550781 36 34 36 Z M 40.910156 38L44 38L44 40C44 40.550781 44.449219 41 45 41C45.550781 41 46 40.550781 46 40L46 38L56 38L56 40C56 40.550781 56.449219 41 57 41C57.550781 41 58 40.550781 58 40L58 38L61.089844 38L62.902344 58L39.097656 58L39.460938 54L39.640625 52 Z M 6 46C5.449219 46 5 46.449219 5 47L5 49C5 49.550781 5.449219 50 6 50C6.550781 50 7 49.550781 7 49L7 47C7 46.449219 6.550781 46 6 46 Z M 11 46C10.449219 46 10 46.449219 10 47L10 49C10 49.550781 10.449219 50 11 50C11.550781 50 12 49.550781 12 49L12 47C12 46.449219 11.550781 46 11 46 Z M 16 46C15.449219 46 15 46.449219 15 47L15 49C15 49.550781 15.449219 50 16 50C16.550781 50 17 49.550781 17 49L17 47C17 46.449219 16.550781 46 16 46 Z M 21 46C20.449219 46 20 46.449219 20 47L20 49C20 49.550781 20.449219 50 21 50C21.550781 50 22 49.550781 22 49L22 47C22 46.449219 21.550781 46 21 46 Z M 26 46C25.449219 46 25 46.449219 25 47L25 49C25 49.550781 25.449219 50 26 50C26.550781 50 27 49.550781 27 49L27 47C27 46.449219 26.550781 46 26 46 Z M 31 46C30.449219 46 30 46.449219 30 47L30 49C30 49.550781 30.449219 50 31 50C31.550781 50 32 49.550781 32 49L32 47C32 46.449219 31.550781 46 31 46 Z M 36 46C35.449219 46 35 46.449219 35 47L35 49C35 49.550781 35.449219 50 36 50C36.550781 50 37 49.550781 37 49L37 47C37 46.449219 36.550781 46 36 46Z"/></svg>