<svg xmlns="http://www.w3.org/2000/svg" xmlns:xlink="http://www.w3.org/1999/xlink" viewBox="0 0 50 50"><path d="M27 4C23.058519 4 20.023964 5.2025478 18 7.1542969C15.976036 9.1060459 15 11.765467 15 14.5C15 15.719519 15.389483 16.892523 15.830078 18.037109C15.35928 18.55795 14.906436 19.289336 15.003906 20.458984 A 1.0001 1.0001 0 0 0 15.009766 20.509766C15.177009 21.736215 15.531491 22.621049 16.003906 23.242188C16.282459 23.608432 16.60883 23.855528 16.962891 24.027344C17.145694 24.974679 17.38801 25.921111 17.779297 26.681641C18.139682 27.382108 18.562347 27.815242 19 28.257812L19 32.261719C18.698076 33.084361 17.963563 33.722436 16.755859 34.333984C15.509307 34.965205 13.865967 35.513394 12.199219 36.214844C10.53247 36.916294 8.8240934 37.778649 7.4628906 39.150391C6.1016878 40.522132 5.1387029 42.429116 5.0019531 44.945312 A 1.0001 1.0001 0 0 0 6 46L26 46L26 49 A 1.0001 1.0001 0 0 0 27 50L49 50 A 1.0001 1.0001 0 0 0 50 49L50 28 A 1.0001 1.0001 0 0 0 49 27L31.984375 27C32.45982 26.086374 32.851228 24.956582 33.082031 23.826172C33.417883 23.675357 33.776843 23.66641 34.048828 23.333984C34.554913 22.715436 34.883849 21.824534 34.996094 20.589844 A 1.0001 1.0001 0 0 0 34.996094 20.583984C35.061364 19.800712 34.902364 19.103423 34.599609 18.554688C34.506209 18.385403 34.286409 18.349335 34.166016 18.205078C34.687475 17.183967 35.006136 15.949548 35 14.496094C34.992351 12.64221 34.56607 10.601375 33.46875 8.9296875C32.490737 7.4397552 30.812135 6.4164156 28.708984 6.1816406L27.894531 4.5527344 A 1.0001 1.0001 0 0 0 27 4 z M 26.427734 6.0898438L27.105469 7.4472656 A 1.0001 1.0001 0 0 0 28 8C29.870012 8 30.989445 8.7972813 31.796875 10.027344C32.604305 11.257406 32.993649 12.96479 33 14.503906C33.0063 15.992117 32.551454 17.35069 32.212891 17.783203 A 1.0001 1.0001 0 0 0 32.804688 19.380859C32.627254 19.345369 32.752359 19.345219 32.849609 19.521484C32.946449 19.697 33.037422 19.998107 33.003906 20.412109C32.915906 21.375341 32.670686 21.860177 32.501953 22.066406C32.333039 22.272858 32.244444 22.25 32.25 22.25 A 1.0001 1.0001 0 0 0 31.261719 23.101562C31.100485 24.177311 30.568197 25.511269 30.068359 26.359375L29.642578 27L27 27 A 1.0001 1.0001 0 0 0 26 28L26 44L7.234375 44C7.5085971 42.556947 8.0349255 41.413045 8.8828125 40.558594C9.9434847 39.48971 11.403858 38.719644 12.974609 38.058594C14.545361 37.397544 16.209834 36.853545 17.660156 36.119141C19.110479 35.384736 20.432654 34.398509 20.951172 32.810547 A 1.0001 1.0001 0 0 0 21 32.5L21 28 A 1.0001 1.0001 0 0 0 20.554688 27.167969C20.508237 27.137009 19.95435 26.536794 19.558594 25.767578C19.162838 24.998362 18.82976 24.032788 18.746094 23.154297 A 1.0001 1.0001 0 0 0 17.75 22.25C17.95 22.25 17.79829 22.29761 17.595703 22.03125C17.396625 21.7695 17.13506 21.213887 17 20.271484C16.94759 19.505644 17.422135 19.154775 17.455078 19.132812 A 1.0001 1.0001 0 0 0 17.814453 17.894531C17.3038 16.741623 17 15.582219 17 14.5C17 12.234533 17.783136 10.143954 19.388672 8.5957031C20.892843 7.1452009 23.23711 6.2116171 26.427734 6.0898438 z M 28 29L48 29L48 48L28 48L28 45.167969 A 1.0001 1.0001 0 0 0 28 44.841797L28 29 z M 34 31 A 1.0001 1.0001 0 1 0 34 33L42 33 A 1.0001 1.0001 0 1 0 42 31L34 31 z"/></svg>