<svg xmlns="http://www.w3.org/2000/svg" xmlns:xlink="http://www.w3.org/1999/xlink" viewBox="0 0 64 64"><path d="M3 5.878906C1.347656 5.878906 0 7.226563 0 8.878906L0 50.878906C0 52.53125 1.347656 53.878906 3 53.878906L39.988281 53.878906C42.289063 57.546875 46.359375 60 51 60C58.167969 60 64 54.167969 64 47C64 41.601563 60.691406 36.96875 56 35.003906L56 8.878906C56 7.226563 54.652344 5.878906 53 5.878906 Z M 3 7.878906L53 7.878906C53.550781 7.878906 54 8.328125 54 8.878906L54 15.878906L2 15.878906L2 8.878906C2 8.328125 2.449219 7.878906 3 7.878906 Z M 5 9.878906C4.445313 9.878906 4 10.328125 4 10.878906L4 12.878906C4 13.429688 4.445313 13.878906 5 13.878906C5.554688 13.878906 6 13.429688 6 12.878906L6 10.878906C6 10.328125 5.554688 9.878906 5 9.878906 Z M 10 9.878906C9.445313 9.878906 9 10.328125 9 10.878906L9 12.878906C9 13.429688 9.445313 13.878906 10 13.878906C10.554688 13.878906 11 13.429688 11 12.878906L11 10.878906C11 10.328125 10.554688 9.878906 10 9.878906 Z M 15 9.878906C14.445313 9.878906 14 10.328125 14 10.878906L14 12.878906C14 13.429688 14.445313 13.878906 15 13.878906C15.554688 13.878906 16 13.429688 16 12.878906L16 10.878906C16 10.328125 15.554688 9.878906 15 9.878906 Z M 20 9.878906C19.445313 9.878906 19 10.328125 19 10.878906L19 12.878906C19 13.429688 19.445313 13.878906 20 13.878906C20.554688 13.878906 21 13.429688 21 12.878906L21 10.878906C21 10.328125 20.554688 9.878906 20 9.878906 Z M 25 9.878906C24.445313 9.878906 24 10.328125 24 10.878906L24 12.878906C24 13.429688 24.445313 13.878906 25 13.878906C25.554688 13.878906 26 13.429688 26 12.878906L26 10.878906C26 10.328125 25.554688 9.878906 25 9.878906 Z M 30 9.878906C29.445313 9.878906 29 10.328125 29 10.878906L29 12.878906C29 13.429688 29.445313 13.878906 30 13.878906C30.554688 13.878906 31 13.429688 31 12.878906L31 10.878906C31 10.328125 30.554688 9.878906 30 9.878906 Z M 35 9.878906C34.445313 9.878906 34 10.328125 34 10.878906L34 12.878906C34 13.429688 34.445313 13.878906 35 13.878906C35.554688 13.878906 36 13.429688 36 12.878906L36 10.878906C36 10.328125 35.554688 9.878906 35 9.878906 Z M 40 9.878906C39.445313 9.878906 39 10.328125 39 10.878906L39 12.878906C39 13.429688 39.445313 13.878906 40 13.878906C40.554688 13.878906 41 13.429688 41 12.878906L41 10.878906C41 10.328125 40.554688 9.878906 40 9.878906 Z M 45 9.878906C44.445313 9.878906 44 10.328125 44 10.878906L44 12.878906C44 13.429688 44.445313 13.878906 45 13.878906C45.554688 13.878906 46 13.429688 46 12.878906L46 10.878906C46 10.328125 45.554688 9.878906 45 9.878906 Z M 50 9.878906C49.445313 9.878906 49 10.328125 49 10.878906L49 12.878906C49 13.429688 49.445313 13.878906 50 13.878906C50.554688 13.878906 51 13.429688 51 12.878906L51 10.878906C51 10.328125 50.554688 9.878906 50 9.878906 Z M 2 17.878906L54 17.878906L54 34.363281C53.035156 34.132813 52.035156 34 51 34C43.832031 34 38 39.832031 38 47C38 48.726563 38.34375 50.371094 38.957031 51.878906L3 51.878906C2.449219 51.878906 2 51.429688 2 50.878906 Z M 11 22C10.445313 22 10 22.449219 10 23L10 28L7 28C6.445313 28 6 28.449219 6 29C6 29.550781 6.445313 30 7 30L10 30L10 40L7.25 40C6.695313 40 6.25 40.449219 6.25 41C6.25 41.550781 6.695313 42 7.25 42L10 42L10 47C10 47.550781 10.445313 48 11 48C11.554688 48 12 47.550781 12 47L12 42L28 42L28 47C28 47.550781 28.445313 48 29 48C29.554688 48 30 47.550781 30 47L30 42L37.167969 42C37.722656 42 38.167969 41.550781 38.167969 41C38.167969 40.449219 37.722656 40 37.167969 40L30 40L30 30L44 30L44 33C44 33.550781 44.445313 34 45 34C45.554688 34 46 33.550781 46 33L46 30L48.917969 30C49.472656 30 49.917969 29.550781 49.917969 29C49.917969 28.449219 49.472656 28 48.917969 28L46 28L46 23C46 22.449219 45.554688 22 45 22C44.445313 22 44 22.449219 44 23L44 28L30 28L30 23C30 22.449219 29.554688 22 29 22C28.445313 22 28 22.449219 28 23L28 28L12 28L12 23C12 22.449219 11.554688 22 11 22 Z M 12 30L28 30L28 40L12 40 Z M 51 36C57.066406 36 62 40.933594 62 47C62 53.066406 57.066406 58 51 58C44.933594 58 40 53.066406 40 47C40 40.933594 44.933594 36 51 36 Z M 51 39C50.445313 39 50 39.449219 50 40L50 47C50 47.128906 50.027344 47.261719 50.078125 47.382813C50.128906 47.503906 50.203125 47.613281 50.296875 47.707031L55.292969 52.707031C55.488281 52.902344 55.742188 53 56 53C56.257813 53 56.511719 52.902344 56.707031 52.707031C57.097656 52.316406 57.097656 51.683594 56.707031 51.292969L52 46.585938L52 40C52 39.449219 51.554688 39 51 39Z"/></svg>