<svg xmlns="http://www.w3.org/2000/svg" xmlns:xlink="http://www.w3.org/1999/xlink" viewBox="0 0 50 50"><path d="M13.90625 3.96875C13.875 3.976563 13.84375 3.988281 13.8125 4L5 4C3.355469 4 2 5.355469 2 7L2 14.6875C1.941406 14.882813 1.941406 15.085938 2 15.28125L2 24.6875C1.941406 24.882813 1.941406 25.085938 2 25.28125L2 43C2 44.644531 3.355469 46 5 46L31 46L31 44L26 44L26 36L31 36L31 34L26 34L26 26L35 26L35 29L37 29L37 26L46 26L46 29L48 29L48 25.1875C48.027344 25.054688 48.027344 24.914063 48 24.78125L48 15.1875C48.027344 15.054688 48.027344 14.914063 48 14.78125L48 7C48 5.355469 46.644531 4 45 4L25.21875 4C25.117188 3.972656 25.011719 3.960938 24.90625 3.96875C24.875 3.976563 24.84375 3.988281 24.8125 4L14.21875 4C14.117188 3.972656 14.011719 3.960938 13.90625 3.96875 Z M 5 6L13 6L13 14L4 14L4 7C4 6.445313 4.445313 6 5 6 Z M 15 6L24 6L24 14L15 14 Z M 26 6L35 6L35 14L26 14 Z M 37 6L45 6C45.554688 6 46 6.445313 46 7L46 14L37 14 Z M 4 16L13 16L13 24L4 24 Z M 15 16L24 16L24 24L15 24 Z M 26 16L35 16L35 24L26 24 Z M 37 16L46 16L46 24L37 24 Z M 4 26L13 26L13 34L4 34 Z M 15 26L24 26L24 34L15 34 Z M 37.90625 31.96875C37.863281 31.976563 37.820313 31.988281 37.78125 32C37.316406 32.105469 36.988281 32.523438 37 33L37 35L35 35C34.96875 35 34.9375 35 34.90625 35C34.355469 35.027344 33.925781 35.496094 33.953125 36.046875C33.980469 36.597656 34.449219 37.027344 35 37L37 37L37 41L35 41C34.96875 41 34.9375 41 34.90625 41C34.355469 41.027344 33.925781 41.496094 33.953125 42.046875C33.980469 42.597656 34.449219 43.027344 35 43L37 43L37 45C36.996094 45.359375 37.183594 45.695313 37.496094 45.878906C37.808594 46.058594 38.191406 46.058594 38.503906 45.878906C38.816406 45.695313 39.003906 45.359375 39 45L39 43L43 43L43 45C42.996094 45.359375 43.183594 45.695313 43.496094 45.878906C43.808594 46.058594 44.191406 46.058594 44.503906 45.878906C44.816406 45.695313 45.003906 45.359375 45 45L45 43L47 43C47.359375 43.003906 47.695313 42.816406 47.878906 42.503906C48.058594 42.191406 48.058594 41.808594 47.878906 41.496094C47.695313 41.183594 47.359375 40.996094 47 41L45 41L45 37L47 37C47.359375 37.003906 47.695313 36.816406 47.878906 36.503906C48.058594 36.191406 48.058594 35.808594 47.878906 35.496094C47.695313 35.183594 47.359375 34.996094 47 35L45 35L45 33C45.011719 32.710938 44.894531 32.433594 44.6875 32.238281C44.476563 32.039063 44.191406 31.941406 43.90625 31.96875C43.863281 31.976563 43.820313 31.988281 43.78125 32C43.316406 32.105469 42.988281 32.523438 43 33L43 35L39 35L39 33C39.011719 32.710938 38.894531 32.433594 38.6875 32.238281C38.476563 32.039063 38.191406 31.941406 37.90625 31.96875 Z M 4 36L13 36L13 44L5 44C4.445313 44 4 43.554688 4 43 Z M 15 36L24 36L24 44L15 44 Z M 39 37L43 37L43 41L39 41Z"/></svg>