<svg xmlns="http://www.w3.org/2000/svg" xmlns:xlink="http://www.w3.org/1999/xlink" viewBox="0 0 80 80"><path d="M9 11C6.800781 11 5 12.800781 5 15L5 65C5 67.199219 6.800781 69 9 69L71 69C73.199219 69 75 67.199219 75 65L75 27C75 24.800781 73.199219 23 71 23L70 23L70 21C70 18.800781 68.199219 17 66 17L28.167969 17L27.203125 14.691406C26.273438 12.460938 24.085938 11 21.667969 11 Z M 9 13L21.667969 13C23.285156 13 24.738281 13.96875 25.359375 15.460938L26.832031 19L66 19C67.117188 19 68 19.882813 68 21L68 23L9 23C8.257813 23 7.597656 23.261719 7 23.621094L7 15C7 13.882813 7.882813 13 9 13 Z M 9 25L71 25C72.117188 25 73 25.882813 73 27L73 65C73 66.117188 72.117188 67 71 67L9 67C7.882813 67 7 66.117188 7 65L7 27C7 25.882813 7.882813 25 9 25 Z M 69 26C68.449219 26 68 26.449219 68 27C68 27.550781 68.449219 28 69 28C69.550781 28 70 27.550781 70 27C70 26.449219 69.550781 26 69 26 Z M 69 30C68.449219 30 68 30.449219 68 31C68 31.550781 68.449219 32 69 32C69.550781 32 70 31.550781 70 31C70 30.449219 69.550781 30 69 30 Z M 40 32C36.144531 32 33 35.144531 33 39C33 41.40625 34.230469 43.539063 36.089844 44.796875C32.515625 46.324219 30 49.875 30 54L32 54C32 49.570313 35.570313 46 40 46C44.429688 46 48 49.570313 48 54L50 54C50 49.875 47.484375 46.324219 43.910156 44.796875C45.769531 43.539063 47 41.40625 47 39C47 35.144531 43.855469 32 40 32 Z M 40 34C42.773438 34 45 36.226563 45 39C45 41.773438 42.773438 44 40 44C37.226563 44 35 41.773438 35 39C35 36.226563 37.226563 34 40 34 Z M 69 34C68.449219 34 68 34.449219 68 35C68 35.550781 68.449219 36 69 36C69.550781 36 70 35.550781 70 35C70 34.449219 69.550781 34 69 34 Z M 69 38C68.449219 38 68 38.449219 68 39C68 39.550781 68.449219 40 69 40C69.550781 40 70 39.550781 70 39C70 38.449219 69.550781 38 69 38 Z M 69 42C68.449219 42 68 42.449219 68 43C68 43.550781 68.449219 44 69 44C69.550781 44 70 43.550781 70 43C70 42.449219 69.550781 42 69 42 Z M 69 46C68.449219 46 68 46.449219 68 47C68 47.550781 68.449219 48 69 48C69.550781 48 70 47.550781 70 47C70 46.449219 69.550781 46 69 46 Z M 69 50C68.449219 50 68 50.449219 68 51C68 51.550781 68.449219 52 69 52C69.550781 52 70 51.550781 70 51C70 50.449219 69.550781 50 69 50 Z M 69 54C68.449219 54 68 54.449219 68 55C68 55.550781 68.449219 56 69 56C69.550781 56 70 55.550781 70 55C70 54.449219 69.550781 54 69 54 Z M 69 58C68.449219 58 68 58.449219 68 59C68 59.550781 68.449219 60 69 60C69.550781 60 70 59.550781 70 59C70 58.449219 69.550781 58 69 58 Z M 9 62C8.449219 62 8 62.449219 8 63C8 63.550781 8.449219 64 9 64C9.550781 64 10 63.550781 10 63C10 62.449219 9.550781 62 9 62 Z M 13 62C12.449219 62 12 62.449219 12 63C12 63.550781 12.449219 64 13 64C13.550781 64 14 63.550781 14 63C14 62.449219 13.550781 62 13 62 Z M 17 62C16.449219 62 16 62.449219 16 63C16 63.550781 16.449219 64 17 64C17.550781 64 18 63.550781 18 63C18 62.449219 17.550781 62 17 62 Z M 21 62C20.449219 62 20 62.449219 20 63C20 63.550781 20.449219 64 21 64C21.550781 64 22 63.550781 22 63C22 62.449219 21.550781 62 21 62 Z M 25 62C24.449219 62 24 62.449219 24 63C24 63.550781 24.449219 64 25 64C25.550781 64 26 63.550781 26 63C26 62.449219 25.550781 62 25 62 Z M 29 62C28.449219 62 28 62.449219 28 63C28 63.550781 28.449219 64 29 64C29.550781 64 30 63.550781 30 63C30 62.449219 29.550781 62 29 62 Z M 33 62C32.449219 62 32 62.449219 32 63C32 63.550781 32.449219 64 33 64C33.550781 64 34 63.550781 34 63C34 62.449219 33.550781 62 33 62 Z M 37 62C36.449219 62 36 62.449219 36 63C36 63.550781 36.449219 64 37 64C37.550781 64 38 63.550781 38 63C38 62.449219 37.550781 62 37 62 Z M 41 62C40.449219 62 40 62.449219 40 63C40 63.550781 40.449219 64 41 64C41.550781 64 42 63.550781 42 63C42 62.449219 41.550781 62 41 62 Z M 45 62C44.449219 62 44 62.449219 44 63C44 63.550781 44.449219 64 45 64C45.550781 64 46 63.550781 46 63C46 62.449219 45.550781 62 45 62 Z M 49 62C48.449219 62 48 62.449219 48 63C48 63.550781 48.449219 64 49 64C49.550781 64 50 63.550781 50 63C50 62.449219 49.550781 62 49 62 Z M 53 62C52.449219 62 52 62.449219 52 63C52 63.550781 52.449219 64 53 64C53.550781 64 54 63.550781 54 63C54 62.449219 53.550781 62 53 62 Z M 57 62C56.449219 62 56 62.449219 56 63C56 63.550781 56.449219 64 57 64C57.550781 64 58 63.550781 58 63C58 62.449219 57.550781 62 57 62 Z M 61 62C60.449219 62 60 62.449219 60 63C60 63.550781 60.449219 64 61 64C61.550781 64 62 63.550781 62 63C62 62.449219 61.550781 62 61 62 Z M 65 62C64.449219 62 64 62.449219 64 63C64 63.550781 64.449219 64 65 64C65.550781 64 66 63.550781 66 63C66 62.449219 65.550781 62 65 62 Z M 69 62C68.449219 62 68 62.449219 68 63C68 63.550781 68.449219 64 69 64C69.550781 64 70 63.550781 70 63C70 62.449219 69.550781 62 69 62Z"/></svg>