<svg xmlns="http://www.w3.org/2000/svg" xmlns:xlink="http://www.w3.org/1999/xlink" viewBox="0 0 32 32"><path d="M6 3L6 29L16.8125 29L18.8125 27L8 27L8 5L18 5L18 11L24 11L24 16.40625C24.601563 16.207031 25.300781 16 26 16L26 9.59375L19.40625 3 Z M 20 6.40625L22.59375 9L20 9 Z M 26.5 18C23.472656 18 21 20.472656 21 23.5C21 24.660156 21.351563 25.734375 21.96875 26.625L18.28125 30.28125L19.71875 31.71875L23.375 28.03125C24.265625 28.648438 25.339844 29 26.5 29C29.527344 29 32 26.527344 32 23.5C32 20.472656 29.527344 18 26.5 18 Z M 26.5 20C28.445313 20 30 21.554688 30 23.5C30 25.445313 28.445313 27 26.5 27C24.554688 27 23 25.445313 23 23.5C23 21.554688 24.554688 20 26.5 20Z"/></svg>