<svg xmlns="http://www.w3.org/2000/svg" xmlns:xlink="http://www.w3.org/1999/xlink" viewBox="0 0 30 30" fill="#FFFFFF">
  <path d="M5 4C3.895 4 3 4.895 3 6L3 10L27 10L27 6C27 4.895 26.105 4 25 4L5 4 z M 6 6C6.552 6 7 6.448 7 7C7 7.552 6.552 8 6 8C5.448 8 5 7.552 5 7C5 6.448 5.448 6 6 6 z M 10 6C10.552 6 11 6.448 11 7C11 7.552 10.552 8 10 8C9.448 8 9 7.552 9 7C9 6.448 9.448 6 10 6 z M 3 12L3 25 A 1.0001 1.0001 0 0 0 4 26L26 26 A 1.0001 1.0001 0 0 0 27 25L27 12L25 12L25 24L5 24L5 12L3 12 z M 7 12L7 22L14 22L14 12L7 12 z M 17 12 A 1.0001 1.0001 0 1 0 17 14L22 14 A 1.0001 1.0001 0 1 0 22 12L17 12 z M 17 16 A 1.0001 1.0001 0 1 0 17 18L22 18 A 1.0001 1.0001 0 1 0 22 16L17 16 z M 17 20 A 1.0001 1.0001 0 1 0 17 22L22 22 A 1.0001 1.0001 0 1 0 22 20L17 20 z" fill="#FFFFFF" />
</svg>