<svg xmlns="http://www.w3.org/2000/svg" xmlns:xlink="http://www.w3.org/1999/xlink" viewBox="0 0 30 30" fill="#FFFFFF">
  <path d="M5 4C3.895 4 3 4.895 3 6L3 20C3 21.105 3.895 22 5 22L6.9804688 22C7.9734688 21.287 9.1368906 20.930688 9.9628906 20.679688C10.275891 20.584688 10.689 20.458891 11 20.337891L11 19.990234C10.451 19.336234 10.138031 18.795047 9.9570312 18.373047C9.8490312 18.262047 9.7512969 18.132 9.6542969 18L5 18L5 6L25 6L25 18L20.279297 18C20.217297 18.083 20.159703 18.172094 20.095703 18.246094C19.924703 18.685094 19.607953 19.268234 19.001953 19.990234L19.001953 20.337891C19.312953 20.458891 19.724109 20.585687 20.037109 20.679688C20.863109 20.929688 22.025531 21.287 23.019531 22L25 22C26.105 22 27 21.105 27 20L27 6C27 4.895 26.105 4 25 4L5 4 z M 15 9.0019531C12.577 9.0019531 10.611328 10.460266 10.611328 13.072266C10.611328 14.176266 11.232422 15.037109 11.232422 15.037109C11.232422 15.037109 10.949219 15.176625 10.949219 15.765625C10.949219 16.911625 11.685547 17.185547 11.685547 17.185547C11.764547 17.881547 12.609 18.820656 13 19.222656L13 21.330078C11.77 23.076078 7 22.255 7 26L23 26C23 22.255 18.23 23.076078 17 21.330078L17 19.222656C17.391 18.820656 18.235453 17.880547 18.314453 17.185547C18.314453 17.185547 19.050781 16.676625 19.050781 15.765625C19.050781 15.133625 18.767578 15.037109 18.767578 15.037109C18.767578 15.037109 19.275391 14.076203 19.275391 13.158203C19.275391 11.318203 18.351781 9.9023438 16.800781 9.9023438C16.800781 9.9023438 16.141 9.0019531 15 9.0019531 z" fill="#FFFFFF" />
</svg>